<?xml version="1.0" encoding="utf-8"?>
<!-- Generator: Adobe Illustrator 19.0.0, SVG Export Plug-In . SVG Version: 6.00 Build 0)  -->
<svg version="1.1" id="Layer_1" xmlns="http://www.w3.org/2000/svg" xmlns:xlink="http://www.w3.org/1999/xlink" x="0px" y="0px"
	 viewBox="0 0 700 500" style="enable-background:new 0 0 700 500;" xml:space="preserve">
<style type="text/css">
	.st0{fill:#D8D8D8;}
	.st1{fill:#FFFFFF;}
	.st2{fill:none;stroke:#FFFFFF;stroke-width:2.3291;stroke-miterlimit:10;}
	.st3{fill:none;stroke:#D8D8D8;stroke-width:21.2649;stroke-miterlimit:10;}
</style>
<g id="XMLID_2_">
	<path id="XMLID_5_" class="st0" d="M35.8,186.1c10.2,9.2,23.8,21.6,39.7,17.5c14.4-3.6,24.9-19.2,24-35.3
		c-0.9-15.9-12.8-26.2-19.1-31.7c-13.7-11.9-40.1-24.8-55.7-12c-10.3,8.4-10.3,23.4-10.3,24.9C14.5,166.9,27.5,178.7,35.8,186.1z"/>
	<path id="XMLID_1_" class="st0" d="M78.2,128.3c10.2,5.6,28.4,10.8,39,1.6c14.5-12.7,6.2-45.2-6.3-63.8
		c-2.6-3.9-18.7-27.9-39.1-25.5c-14.1,1.6-21.2,14.8-21.6,15.6C38.9,77.4,53.2,114.5,78.2,128.3z"/>
	<path id="XMLID_6_" class="st0" d="M118,67c4,16,15.9,42,33.4,44c5.4,0.6,9.6-1.3,11.4-2.2c16.8-8,22.5-35.8,17.1-57.7
		c-1.4-5.8-7.4-29.9-26.9-37c-9-3.3-20.7-2.9-28.9,4C108.9,30.9,115.8,58.2,118,67z"/>
	<path id="XMLID_7_" class="st0" d="M223,52.5c13.3,7.3,17.1,23.8,18.9,31.6c1.8,7.9,5.2,22.6-2.4,36.2c-5.6,10.1-18.6,22-32.2,18.2
		c-16.5-4.5-22-27.4-23.2-33c0-0.1-0.1-0.5-0.2-0.9c-4.2-21.6,5.7-52.3,24-55.4C214.9,48.1,221,51.4,223,52.5z"/>
	<path id="XMLID_10_" class="st0" d="M163.5,268.1c-14.2,8.4-41.4,15.2-60.3-0.8c-12.4-10.6-17.4-27.8-17-40.5
		c0.5-16.2,10.1-31.1,11.8-33.8c4-6.3,7.2-9,9.5-16.5c2.5-8,0.6-10,2.9-20.1c1.5-6.3,3.3-14.2,9.5-20.6c4-4.1,8.1-5.9,12.8-7.9
		c3.8-1.6,9.6-4.1,17.7-4.3c3.5-0.1,11.1-0.2,19.8,4.2c4.4,2.2,7.7,4.9,9.9,6.9c1.2,1.1,2.2,1.9,3,2.6c0,0,1.6,1.2,3.2,2.3
		c6.1,3.9,18.1,6.2,18.1,6.2c12.8,2.4,12.2,1.7,16.8,2.9c0.5,0.1,9.4,2.6,15.9,6.8c11,7.1,19.8,21.8,21.1,35.9
		c2.2,23.7-17.5,44.8-35.9,51.4c-13.3,4.8-20-0.2-35.4,7.4C174.2,256,174.6,261.5,163.5,268.1z"/>
</g>
<path id="XMLID_11_" class="st0" d="M346,374.1c3.9,6.3,5.3,8.2,7.9,10.1c5.2,3.7,9.3,2.7,17.9,4.2c8.4,1.5,16.9,3,22.8,9
	c6.4,6.6,8.3,16.7,6.5,25c-0.4,1.8-2.6,12.3-11.6,17.1c-3.9,2.1-7.7,2.4-8.2,2.5c-9.3,0.4-13.4-8-24.1,6.1
	c-5.8,7.6-11.5,10.9-17,11.7c-9.2,1.3-17.4-4.7-19.3-6.2c-7.4-5.9-11.8-15.4-11.4-24.3c0.4-8.5,4.8-10.3,5.3-19.6
	c0.4-7.3-1.9-13.5-4.1-17.7c-5.4-12.3-11.5-25.1-18.6-38.5c-5.6-10.6-11.3-20.6-16.9-29.9c-3.3-6.6-7.3-10.4-10.5-12.7
	c-3.2-2.3-4.9-2.4-23.1-8.6c-7.2-2.4-11.5-4.2-14.9-8.6c-1.3-1.6-2.1-3.7-2.8-6.4c-2-8.2-0.3-17.6,2.8-22.3s5-9,16.9-8.9
	c11.9,0.1,15.2,3.3,17.6-1.8s7.8-16.2,16.8-20c9-3.8,17.5-1.1,22,0.8s14,9,16.7,16.6c2.7,7.5,0.7,16.4-4.6,24.9
	c-2.4,3.9-5.7,7.2-6,13c-0.1,3,0.6,5.5,1.3,7.2c3.1,7.8,6.2,15.6,9.3,23.4c5.9,11.4,11.7,22.8,17.6,34.2
	C339,362.6,342.9,369.1,346,374.1z"/>
<g id="XMLID_18_">
	<path id="XMLID_3_" class="st0" d="M119.4,462.3c18.7-0.4,50.2-1,74-25c22.1-22.3,25.8-51.7,25-63.1c-0.6-10-2.7-16.1-2.7-16.1
		c-1.3-3.8-2.5-5.9-6.8-16.7c-1.2-3-1.9-4.5-2-5.2c-1.4-5.4-0.2-10.1-1.8-21.4c-0.7-5.3-4.4-30.2-12.6-31.7
		c-1.5-0.3-7-0.7-16.2,14.2c-3,5.5-7.7,12.3-14.3,12.8c-3.2,0.3-5.7-1.1-7-1.7c-11.9-6.1-28.1-5.7-37.8-5.5
		c-1.7,0-25.7,0.6-36.7,4.8c-0.9,0.3-3.5,1.2-6.6,0.5c-4.5-1-7.1-4.8-8.3-6.5c-4.6-6.3-16.4-19.8-23-18.4c-3.3,0.7-6.2,4.6-7.1,11.3
		c-1.8,12.9-3.6,25.8-5.4,38.7c-0.2,1.6-0.6,4.6-1.6,8.4c-1.4,5.5-3,9.3-3.6,10.8c-1.8,4.4-3.8,11.4-4.4,22.1
		c-0.9,7.7-1.4,22.4,5.5,38.3c10.2,23.3,29.7,33.7,38.4,38.3C86.7,462.9,107.5,462.6,119.4,462.3z"/>
	<path id="XMLID_12_" class="st1" d="M52.9,319.4c3.1-1.6,6.2-3.2,9.3-4.9c-1-2.1-2.6-5-5.4-7.9c-2.5-2.6-6-6.1-8.7-5.2
		c-3.1,1-3.8,6.9-4.2,11.1c-0.5,4.7,0,8.7,0.5,11.3C47.2,322.4,50,320.9,52.9,319.4z"/>
	<path id="XMLID_13_" class="st1" d="M185.8,320.9c-3.1-1.6-6.2-3.2-9.3-4.9c1-2.1,2.6-5,5.4-7.9c2.5-2.6,6-6.1,8.7-5.2
		c3.1,1,3.8,6.9,4.2,11.1c0.5,4.7,0,8.7-0.5,11.3C191.5,323.9,188.7,322.4,185.8,320.9z"/>
	<circle id="XMLID_14_" class="st1" cx="97.7" cy="393.7" r="6.8"/>
	<circle id="XMLID_15_" class="st1" cx="139.9" cy="393.7" r="6.8"/>
	<path id="XMLID_16_" class="st1" d="M135.2,416.9c1.8,4.4-6.7,15.6-16.7,15.2c-9.6-0.4-17.2-11.6-15.2-15.8
		c1.2-2.6,6.2-2.6,14.5-2.6C126.8,413.7,133.9,413.7,135.2,416.9z"/>
	<path id="XMLID_17_" class="st1" d="M68.9,459.8"/>
	<path id="XMLID_19_" class="st2" d="M91.7,432.2c-2.1,6.4-0.2,13.4,4.7,17.5c5.6,4.7,13.7,4.4,18.1,1.3c0.6-0.4,1.9-1.4,3-3.1
		c1.1-1.9,1.3-3.7,1.3-10.1c0-1.9,0-4.1-0.1-6.6"/>
	<path id="XMLID_20_" class="st2" d="M145.9,432.2c2.1,6.4,0.2,13.4-4.7,17.5c-5.6,4.7-13.7,4.4-18.1,1.3c-0.6-0.4-1.9-1.4-3-3.1
		c-1.1-1.9-1.3-3.7-1.3-10.1c0-1.9,0-4.1,0.1-6.6"/>
	<path id="XMLID_21_" class="st2" d="M140.7,422.4c0,0,6-10.7,18.8-11.1"/>
	<path id="XMLID_22_" class="st2" d="M142.9,425.7c0,0,10.3-6.7,21.8-1"/>
	<path id="XMLID_24_" class="st2" d="M98.6,422.4c0,0-6-10.7-18.8-11.1"/>
	<path id="XMLID_23_" class="st2" d="M96.4,425.7c0,0-10.3-6.7-21.8-1"/>
</g>
<g id="XMLID_34_">
	<g id="XMLID_25_">
		<path id="XMLID_28_" class="st0" d="M319.8,59.3c-1.3,0.8-1.9,2-2.1,2.4c-1.2,2.3-8.5,16.1-18.5,35.1c3.1,6.6,6.8,15.8,14.9,23.3
			c9.5,8.8,34.5,26.4,34.5,26.4l-4.3,8l45.6,24.3l4.1-7.8c12.2,5.7,30.2,11.9,52.2,11.8c5.8,0,11.2-0.4,16.1-1.1
			c9.1-17,15.8-29.5,17.9-33c0.4-0.7,1.2-2.3,1.4-4.4c0.7-5.2-2.1-9.7-5.9-14.8c-3.5-4.8-8.3-10.9-14.6-17.5
			c-12.1-11.5-27.2-23.2-46.1-33.4c-0.1-0.1-0.6-0.3-1.2-0.6c-17.9-9.5-36.4-19.4-55.7-20.7C340.8,55.9,321.1,58.5,319.8,59.3z"/>
		<path id="XMLID_32_" class="st1" d="M368.5,113.1l4.2-7.9l44.3,23.6l-4.2,7.9c4.5,2.5,12.2,6.1,22.2,6.7c3,0.2,18.4,1.1,21-5.2
			c1.2-3.1-0.8-7.3-7.2-14.3c-11.1-12.2-21.9-17.8-43.5-29.2c-20.7-10.9-28.7-15.1-41.9-17.7c-6.7-1.3-20.2-3.8-23.5,1.7
			c-1.9,3.2,0.2,7.7,1.9,11.1C348.2,102.8,360.5,109.7,368.5,113.1z"/>
		<path id="XMLID_29_" class="st1" d="M376.2,117.6c-5.6,10.6-11.2,21.3-16.8,31.9c9.4,5.1,18.7,10.1,28.1,15.2
			c2.1-3.8,4.2-7.6,6.3-11.3c-4.2-2.3-8.4-4.7-12.6-7c1.6-2.9,3.3-5.8,4.9-8.7c4.1,2.1,8.2,4.2,12.3,6.3c2-3.8,4-7.7,6-11.5
			C394.9,127.5,385.6,122.5,376.2,117.6z"/>
		
			<ellipse id="XMLID_33_" transform="matrix(0.9726 0.2325 -0.2325 0.9726 48.7623 -93.3835)" class="st1" cx="420.4" cy="160.1" rx="7" ry="7.8"/>
		
			<ellipse id="XMLID_35_" transform="matrix(0.9726 0.2325 -0.2325 0.9726 50.2681 -98.7332)" class="st1" cx="443.9" cy="163.8" rx="6.2" ry="6.9"/>
		
			<ellipse id="XMLID_36_" transform="matrix(0.9995 3.304989e-002 -3.304989e-002 0.9995 5.5924 -15.1821)" class="st1" cx="462" cy="161.6" rx="5.7" ry="6.3"/>
	</g>
	<path id="XMLID_30_" class="st0" d="M358.1,186.2L358.1,186.2c-4.3-2.3-6-7.7-3.7-12l10.6-19.9c2.3-4.3,7.7-6,12-3.7h0
		c4.3,2.3,6,7.7,3.7,12l-10.6,19.9C367.8,186.9,362.4,188.5,358.1,186.2z"/>
	<path id="XMLID_31_" class="st0" d="M335.8,225.6c17.7-3.8,30.7-8.5,39.3-12c4.1-1.7,8.9-3.9,11.9-9c3.3-5.7,3.7-13.8-0.2-19.8
		c-1.5-2.3-3.6-4.4-6.1-6c-1.6-1-4.5-2.5-8.3-2.8c-1.8-0.2-5.9-0.5-9.9,1.8c-0.9,0.5-1.5,1-1.9,1.4c-0.1-1.8-0.4-5.4-2.5-9.2
		c-0.7-1.3-3.1-4.8-6.7-7.2c-7.6-5-21.2-1.5-26.4,7.7c-3.3,5.7-2.3,11.8-1.8,14.1C327.3,198.2,331.5,211.9,335.8,225.6z"/>
</g>
<g id="XMLID_179_">
	<g id="XMLID_9_">
		<path id="XMLID_26_" class="st0" d="M508.2,70.3c-0.8,22.8-1.6,45.6-2.4,68.4c1.5,0.7,3.8,1.7,6.6,2.7c3.7,1.4,20.5,7.4,45.8,6.8
			c39.5-1,83-17.8,106.5-33.8c18.2-12.4,25.5-24.9,27.5-28.5c1.7-3,2.8-5.6,3.5-7.2c-13.5-18.1-27-36.2-40.5-54.3
			c-12.8-2.6-23.4-2.9-30.5-2.8c-23.2,0.4-44.5,9.3-87.1,27.2c-4,1.7-11.7,5-19.8,11.8C513.1,64.4,509.9,68.1,508.2,70.3z"/>
		<path id="XMLID_27_" class="st1" d="M531.2,55c-1.3,0.7-17.9,9.7-19.6,17.6c-0.3,1.1-0.6,3,0.3,4.9c1.6,3.6,6,4.5,6,4.5
			s4.1,2,15.7,1.7c16.2-0.4,24.3-1.8,27.6-2.4c4.4-0.7,18.7-3.1,33.5-7.7c7.7-2.4,19.2-5.9,32.3-13.3c5.6-3.1,33.4-18.7,30.7-27.9
			c-0.5-1.6-3.1-7.4-28.9-7.3c0.1,0.8,0.2,1.6,0.3,2.3c5.6,1.5,12.5,4,13.2,8.4c1.4,9.2-25.1,22-51.6,30.1
			c-25.1,7.7-54.2,12.7-64,8.2c-0.6-0.3-2.2-1.1-2.8-2.6c-2-4.9,6.6-12.5,8.8-14.4C532.1,56.4,531.7,55.7,531.2,55z"/>
		<path id="XMLID_4_" class="st0" d="M555.3,35c0,0,0.8-5.8,5.3-7.4c4.6-1.6,6.7-1.5,6.7-1.5s2.4-4.8,6.2-5.7s7.5,1.3,7.5,1.3
			s5.4-2.5,8.7-1.8c3.3,0.7,6.6,2.5,6.6,2.5s4.7-3.4,8.2-3.8c3.5-0.4,9.7,4.6,9.7,4.6s3.9-2.8,7.1-2.2c3.2,0.6,7.6,6.5,7.6,6.5
			s10,0.6,12.7,7S626.1,56.5,589.2,67s-62.9,12.3-66.1,4.3c-1.2-4,8.9-13.7,8.9-13.7s-1.3-4.8,2.3-10.1c1.4-2.8,7.8-3.2,7.8-3.2
			s-0.2-5.5,5.1-8.6S555.3,35,555.3,35z"/>
	</g>
	<g id="XMLID_39_">
		<g id="XMLID_105_">
			<path id="XMLID_189_" class="st1" d="M557.5,117.5c0.8-2.4,1.6-4.7,2.3-6.9c0.7-2.2,1.3-4.3,1.8-6.2c0.5-1.9,0.8-3.6,1.1-5
				c0.2-1.5,0.2-2.7,0.3-3.4c0.1-0.7,0.5-1.5,1-2c0.5-0.5,1.1-0.8,1.8-0.9c0.4,0,0.8,0,1.1,0.2c0.3,0.2,0.6,0.4,0.8,0.7
				c0.2,0.3,0.4,0.6,0.5,1c0.1,0.4,0.2,0.8,0.3,1.2c0,0.3,0,0.6,0,0.8c0,0.2,0,0.5-0.1,0.7c-0.2,1.6-0.6,3.3-1,5
				c-0.4,1.7-0.9,3.5-1.4,5.3c-0.5,1.8-1,3.6-1.5,5.4s-1,3.5-1.4,5.2c-0.2,0.7-0.3,1.1-0.4,1.8c-0.2,0.9-0.4,1.8-0.6,2.6
				c-0.2,0.8-0.2,1.5-0.2,2c0,0.3,0.1,0.5,0.2,0.6c0.1,0.2,0.4,0.2,0.8,0.2c0.9-0.1,1.9-0.2,3.1-0.6c1.2-0.3,2.3-0.7,3.6-1.2
				c1.2-0.5,2.4-1,3.6-1.5c1.2-0.5,2.2-1.1,3.2-1.6c0.5-0.3,0.9-0.5,1.3-0.7c0.4-0.2,0.8-0.4,1.3-0.7c0.5-0.3,1.2-0.7,2.1-1.1
				c0.9-0.5,2.1-1.2,3.6-2.1c0.3-0.1,0.5-0.3,0.7-0.4c0.2-0.1,0.4-0.2,0.6-0.2c0.3-0.1,0.6-0.1,0.9,0c0.3,0.1,0.5,0.2,0.6,0.3
				c0.2,0.1,0.3,0.3,0.4,0.5c0.1,0.2,0.2,0.4,0.2,0.6c0.1,0.4,0.1,0.7,0.1,1c0,0.3,0,0.5-0.1,0.7c-0.2,0.4-0.4,0.7-0.8,1.1
				c-0.3,0.3-0.7,0.7-1.1,0.9c-0.4,0.3-0.8,0.5-1.2,0.7c-0.4,0.2-0.7,0.4-1,0.5c-0.3,0.2-0.7,0.4-1.3,0.6c-0.5,0.3-1.1,0.6-1.7,0.9
				c-0.6,0.3-1.3,0.6-1.9,0.9c-0.7,0.3-1.3,0.6-1.9,0.9c-0.6,0.3-1.1,0.5-1.6,0.7c-0.5,0.2-0.8,0.4-1,0.4c-0.9,0.4-1.9,0.8-3,1.3
				c-1.1,0.5-2.2,0.9-3.3,1.3c-1.1,0.4-2.2,0.8-3.2,1c-1,0.3-1.9,0.4-2.5,0.5c-0.8,0-1.5,0-2-0.1c-0.5-0.1-0.9-0.2-1.3-0.4
				c-0.4-0.2-0.8-0.4-1.2-0.6c-0.4-0.2-0.9-0.5-1.6-0.8c-0.6-0.3-1-0.6-1.2-1.1c-0.2-0.5-0.4-1-0.4-1.5c0-0.3,0-0.6,0.1-1
				c0-0.4,0.1-0.7,0.2-1.1c0.1-0.4,0.2-0.8,0.3-1.2c0.1-0.4,0.2-0.7,0.3-1C556.6,120.2,556.9,119.3,557.5,117.5z"/>
			<path id="XMLID_186_" class="st1" d="M591.3,116.4c-0.2-0.7-0.1-1.4,0.3-2c0.3-0.6,1.3-1.1,1.6-1.4c0.2-0.2,0.3-1,0.6-1.7
				c0.3-0.7,0.7-1.6,1.1-2.5c0.5-0.9,1-1.8,1.6-2.8c0.6-1,1.3-1.9,2.1-2.8c0.8-0.9,1.7-1.7,2.7-2.4c1-0.7,2.1-1.3,3.3-1.7
				c1-0.4,2-0.6,2.9-0.6c0.9-0.1,1.6,0,2.3,0.2s1.2,0.5,1.7,1c0.5,0.5,0.8,1,1.1,1.6c0.2,0.5,0.3,1.1,0.4,1.7c0.1,1-0.1,2-0.5,2.9
				c-0.5,1-1.1,1.9-1.9,2.7c-0.8,0.9-1.7,1.7-2.8,2.4c-1.1,0.7-2.2,1.4-3.3,2c-1.1,0.6-2.2,1.1-3.3,1.6c-1.1,0.5-2.5,0.8-2.8,1.1
				c-0.1,0.1-0.2,0.8-0.2,1.3s0,1,0.2,1.4c0.3,1,0.9,1.6,2,1.8c1.1,0.3,2.5,0.2,4.2-0.4c1-0.3,1.9-0.7,2.7-1.1
				c0.8-0.5,1.6-1,2.3-1.5c0.7-0.5,1.3-1.1,1.9-1.6c0.6-0.6,1.1-1.1,1.5-1.6c0.6-0.7,1.1-1.2,1.7-1.7c0.5-0.5,1-0.9,1.5-1.1
				c0.5-0.2,0.8-0.2,1.1-0.1c0.2,0.1,0.4,0.3,0.5,0.6c0.1,0.1,0.1,0.3,0.1,0.4c0,0.1,0.1,0.2,0.1,0.3c0.1,0.5,0,1-0.1,1.5
				c-0.1,0.5-0.4,1-0.7,1.5c-1.6,2.1-3.4,3.9-5.5,5.2c-2.1,1.4-4.4,2.4-7,3.2c-0.5,0.2-1.1,0.3-1.8,0.5c-0.7,0.1-1.4,0.2-2.2,0.3
				c-0.8,0.1-1.6,0-2.4-0.1c-0.8-0.1-1.5-0.3-2.2-0.6c-0.7-0.3-1.3-0.8-1.8-1.4c-0.5-0.6-0.9-1.4-1.1-2.4c-0.2-0.8-0.3-1.7-0.2-2.7
				c-0.3,0-0.5,0-0.8-0.2C591.6,117,591.4,116.8,591.3,116.4z M607.5,104.2c0-0.1,0-0.2,0-0.2c0-0.1,0-0.1-0.1-0.2
				c-0.2-0.4-0.5-0.7-0.9-0.8s-0.9,0-1.5,0.1c-0.8,0.3-1.6,0.7-2.2,1.4c-0.7,0.6-1.3,1.3-1.8,2.1c-0.5,0.8-1,1.6-1.3,2.4
				c-0.4,0.8-0.6,1.5-0.8,2.2c1.4-0.5,2.6-1.1,3.7-1.6c1.1-0.6,2-1.2,2.7-1.8c0.7-0.6,1.3-1.2,1.7-1.8
				C607.4,105.3,607.5,104.7,607.5,104.2z"/>
			<path id="XMLID_183_" class="st1" d="M621.8,106.3c-0.1-1.1-0.2-2.3-0.1-3.6c0.1-1.3,0.4-2.8,0.8-4.3c0.4-1.5,1-3.1,1.7-4.8
				c0.7-1.7,1.7-3.3,2.8-5.1c0.2-0.3,0.5-0.6,0.9-1.1c0.4-0.4,0.9-0.8,1.4-1.2c0.3-1,1-1.8,2.1-2.4c1.3-0.8,2.5-1.1,3.7-1.1
				c1.2,0,2.4,0.4,3.7,1c0.4,0.2,0.8,0.4,1.1,0.6c0.4,0.2,0.7,0.4,1,0.7c0.3,0.3,0.7,0.6,1,0.9c0.3,0.3,0.6,0.8,1,1.3
				c0.7,1.1,1.3,2.4,1.6,3.9c0.3,1.5,0.5,3,0.4,4.7c-0.1,1.7-0.4,3.4-1,5.2c-0.6,1.8-1.4,3.5-2.4,5.3c-0.7,1.2-1.6,2.3-2.7,3.3
				c-1.1,1-2.4,1.9-4,2.7c-1.5,0.8-2.9,1.3-4.2,1.5c-1.3,0.2-2.4,0.2-3.4-0.1c-1-0.3-1.9-0.7-2.6-1.4c-0.7-0.7-1.3-1.5-1.8-2.6
				C622.3,108.7,622,107.5,621.8,106.3z M626.6,104.4c0.1,0.4,0.1,0.8,0.2,1.1c0.1,0.3,0.2,0.7,0.4,1c0.2,0.5,0.6,1,0.9,1.3
				c0.4,0.4,0.8,0.6,1.3,0.8c0.5,0.1,1.1,0.2,1.7,0.1c0.6-0.1,1.4-0.3,2.1-0.7c1.5-0.7,2.7-1.8,3.6-3c0.9-1.3,1.6-2.6,2-4
				c0.4-1.4,0.7-2.8,0.7-4.1c0-1.4-0.1-2.5-0.3-3.5c-0.2-0.6-0.3-1.2-0.5-1.7c-0.2-0.5-0.4-1-0.6-1.4c-0.2-0.4-0.5-0.7-0.9-0.9
				c-0.4-0.2-0.8-0.5-1.3-0.7c-0.3-0.2-0.6-0.3-0.9-0.5c-0.3-0.2-0.6-0.4-0.9-0.6c0,0.3,0,0.6-0.1,0.8c-0.1,0.2-0.2,0.5-0.4,0.8
				c-0.2,0.3-0.6,0.7-1.1,1.1c-0.5,0.4-1.2,0.9-1.9,1.4c-0.5,0.4-0.9,1.1-1.3,1.7c-0.4,0.7-0.8,1.4-1.1,2.2
				c-0.3,0.8-0.6,1.6-0.9,2.4c-0.3,0.8-0.4,1.6-0.6,2.4c-0.1,0.8-0.2,1.5-0.3,2.3C626.5,103.2,626.6,103.9,626.6,104.4z"/>
		</g>
	</g>
</g>
<g id="XMLID_45_">
	<path id="XMLID_43_" class="st3" d="M533.9,206.7l-120,108.3c-0.8,0.7-2.1,0.7-2.8-0.1l-2.2-2.4c-0.7-0.8-0.7-2.1,0.1-2.8
		l120-108.3c0.8-0.7,2.1-0.7,2.8,0.1l2.2,2.4C534.8,204.7,534.7,206,533.9,206.7z"/>
	<path id="XMLID_44_" class="st3" d="M552.7,206.7l120,108.3c0.8,0.7,2.1,0.7,2.8-0.1l2.2-2.4c0.7-0.8,0.7-2.1-0.1-2.8l-120-108.3
		c-0.8-0.7-2.1-0.7-2.8,0.1l-2.2,2.4C551.8,204.7,551.9,206,552.7,206.7z"/>
	<path id="XMLID_48_" class="st3" d="M556,202.5h-25.5c-0.3,0-0.6-0.3-0.6-0.6V201c0-0.3,0.3-0.6,0.6-0.6H556c0.3,0,0.6,0.3,0.6,0.6
		v0.9C556.6,202.3,556.3,202.5,556,202.5z"/>
	<path id="XMLID_50_" class="st3" d="M556,205.4h-25.5c-0.3,0-0.6-0.3-0.6-0.6V204c0-0.3,0.3-0.6,0.6-0.6H556c0.3,0,0.6,0.3,0.6,0.6
		v0.9C556.6,205.2,556.3,205.4,556,205.4z"/>
	<path id="XMLID_51_" class="st3" d="M556,206.5h-25.5c-0.3,0-0.6-0.3-0.6-0.6V205c0-0.3,0.3-0.6,0.6-0.6H556c0.3,0,0.6,0.3,0.6,0.6
		v0.9C556.6,206.2,556.3,206.5,556,206.5z"/>
	<path id="XMLID_52_" class="st3" d="M556,207.5h-25.5c-0.3,0-0.6-0.3-0.6-0.6V206c0-0.3,0.3-0.6,0.6-0.6H556c0.3,0,0.6,0.3,0.6,0.6
		v0.9C556.6,207.2,556.3,207.5,556,207.5z"/>
	<path id="XMLID_49_" class="st0" d="M440.4,323c0,0,93.9-86.9,99.1-89.1c5.1-2.1,5.8-1.5,8.8,0c3,1.5,99.1,89.1,99.1,89.1
		l-9.7,118.1c0,0,0,4.8-7.6,7.6c-7.6,2.7-50.6,0-50.6,0s13-15.8,12.7-37.3c-0.1-6,6.1-52.4-22.7-68.8c-17.7-10.1-37.4-2.7-38.3-2.3
		c-27.5,10.8-36.2,46.8-33.7,71.3c1.7,16.3,8.4,28.4,12.6,34.9c-15.8,0.2-31.5,0.4-47.3,0.6c-0.7,0.1-5.4,0.8-9.2-2.6
		c-2.8-2.5-3.4-5.6-3.5-6.6C446.8,399.6,443.6,361.3,440.4,323z"/>
</g>
</svg>
