<?xml version="1.0" encoding="utf-8"?>
<!-- Generator: Adobe Illustrator 19.0.0, SVG Export Plug-In . SVG Version: 6.00 Build 0)  -->
<svg version="1.1" id="Layer_1" xmlns="http://www.w3.org/2000/svg" xmlns:xlink="http://www.w3.org/1999/xlink" x="0px" y="0px"
	 viewBox="0 0 700 500" style="enable-background:new 0 0 700 500;" xml:space="preserve">
<style type="text/css">
	.st0{fill:#F2F2F2;}
	.st1{fill:#FFFFFF;}
	.st2{fill:none;stroke:#FFFFFF;stroke-width:2.1869;stroke-miterlimit:10;}
	.st3{fill:none;stroke:#F2F2F2;stroke-width:13.7205;stroke-miterlimit:10;}
</style>
<g id="XMLID_2_">
	<path id="XMLID_5_" class="st0" d="M70.2,151.7c7.2,6.5,16.7,15.1,27.9,12.3c10.1-2.6,17.5-13.5,16.8-24.8
		c-0.7-11.2-9-18.4-13.4-22.3c-9.6-8.3-28.1-17.4-39.1-8.4c-7.2,5.9-7.2,16.4-7.2,17.5C55.4,138.2,64.5,146.4,70.2,151.7z"/>
	<path id="XMLID_1_" class="st0" d="M100,111c7.1,4,19.9,7.6,27.4,1.1c10.2-8.9,4.3-31.8-4.4-44.8c-1.9-2.8-13.2-19.6-27.5-17.9
		c-9.9,1.2-14.9,10.4-15.2,10.9C72.5,75.3,82.5,101.3,100,111z"/>
	<path id="XMLID_6_" class="st0" d="M128,68c2.8,11.2,11.2,29.5,23.4,30.9c3.8,0.4,6.7-0.9,8-1.5c11.8-5.6,15.8-25.1,12-40.5
		c-1-4.1-5.2-21-18.9-26c-6.3-2.3-14.6-2-20.3,2.8C121.6,42.7,126.4,61.8,128,68z"/>
	<path id="XMLID_7_" class="st0" d="M201.7,57.8c9.4,5.1,12,16.7,13.2,22.2c1.3,5.6,3.6,15.9-1.7,25.5c-3.9,7.1-13,15.4-22.6,12.8
		c-11.6-3.1-15.5-19.2-16.3-23.2c0-0.1-0.1-0.3-0.1-0.6c-2.9-15.1,4-36.8,16.9-38.9C196.1,54.7,200.4,57.1,201.7,57.8z"/>
	<path id="XMLID_10_" class="st0" d="M160,209.2c-9.9,5.9-29.1,10.7-42.3-0.6c-8.7-7.4-12.2-19.5-11.9-28.5
		c0.4-11.4,7.1-21.9,8.3-23.8c2.8-4.4,5-6.3,6.7-11.6c1.8-5.6,0.4-7.1,2-14.1c1-4.4,2.3-10,6.7-14.5c2.8-2.9,5.7-4.1,9-5.6
		c2.7-1.2,6.7-2.9,12.4-3c2.5-0.1,7.8-0.1,13.9,2.9c3.1,1.6,5.4,3.4,6.9,4.8c0.8,0.8,1.5,1.3,2.1,1.8c0,0,1.1,0.9,2.2,1.6
		c4.3,2.8,12.7,4.4,12.7,4.4c9,1.7,8.6,1.2,11.8,2c0.4,0.1,6.6,1.8,11.2,4.7c7.7,5,13.9,15.3,14.8,25.2
		c1.5,16.7-12.3,31.5-25.2,36.1c-9.3,3.3-14.1-0.1-24.9,5.2C167.4,200.7,167.7,204.6,160,209.2z"/>
</g>
<path id="XMLID_11_" class="st0" d="M128.1,393.8c1.9,3,2.5,3.9,3.7,4.8c2.5,1.8,4.4,1.3,8.5,2c4,0.7,8,1.4,10.9,4.3
	c3.1,3.1,3.9,8,3.1,11.9c-0.2,0.8-1.2,5.8-5.5,8.1c-1.8,1-3.6,1.2-3.9,1.2c-4.4,0.2-6.4-3.8-11.4,2.9c-2.8,3.6-5.5,5.2-8.1,5.6
	c-4.4,0.6-8.3-2.2-9.2-2.9c-3.5-2.8-5.6-7.3-5.4-11.6c0.2-4,2.3-4.9,2.5-9.3c0.2-3.5-0.9-6.4-1.9-8.4c-2.6-5.8-5.5-11.9-8.8-18.3
	c-2.7-5-5.4-9.8-8-14.2c-1.6-3.1-3.4-4.9-5-6c-1.5-1.1-2.3-1.1-11-4.1c-3.4-1.2-5.5-2-7.1-4.1c-0.6-0.8-1-1.7-1.3-3
	c-0.9-3.9-0.2-8.3,1.3-10.6c1.5-2.2,2.4-4.3,8-4.2c5.6,0.1,7.2,1.6,8.4-0.8c1.1-2.4,3.7-7.7,8-9.5c4.3-1.8,8.3-0.5,10.5,0.4
	c2.2,0.9,6.7,4.3,8,7.9c1.3,3.6,0.3,7.8-2.2,11.9c-1.1,1.8-2.7,3.4-2.8,6.2c-0.1,1.4,0.3,2.6,0.6,3.4c1.5,3.7,2.9,7.4,4.4,11.1
	c2.8,5.4,5.6,10.8,8.4,16.2C124.8,388.3,126.7,391.4,128.1,393.8z"/>
<path id="XMLID_3_" class="st0" d="M306,414.9c17.6-0.4,47.2-1,69.4-23.5c20.7-21,24.2-48.6,23.5-59.2c-0.6-9.4-2.6-15.1-2.6-15.1
	c-1.2-3.6-2.4-5.6-6.4-15.7c-1.1-2.8-1.7-4.3-1.9-4.9c-1.3-5.1-0.2-9.5-1.7-20.1c-0.7-5-4.1-28.3-11.8-29.8
	c-1.4-0.3-6.6-0.6-15.2,13.3c-2.8,5.2-7.3,11.5-13.4,12c-3,0.2-5.4-1-6.6-1.6c-11.2-5.7-26.3-5.4-35.4-5.2c-1.6,0-24.1,0.6-34.4,4.5
	c-0.8,0.3-3.3,1.1-6.2,0.5c-4.2-1-6.7-4.5-7.8-6.1c-4.4-6-15.4-18.6-21.6-17.3c-3.1,0.6-5.8,4.3-6.7,10.6
	c-1.7,12.1-3.4,24.2-5.1,36.4c-0.2,1.5-0.6,4.3-1.5,7.9c-1.3,5.2-2.9,8.7-3.4,10.1c-1.7,4.2-3.6,10.7-4.1,20.8
	c-0.8,7.2-1.4,21,5.2,35.9c9.6,21.8,27.9,31.6,36,36C275.3,415.4,294.8,415.1,306,414.9z"/>
<path id="XMLID_12_" class="st1" d="M243.5,280.7c2.9-1.5,5.8-3,8.7-4.6c-0.9-2-2.4-4.7-5.1-7.4c-2.4-2.4-5.6-5.7-8.2-4.9
	c-2.9,0.9-3.5,6.5-4,10.5c-0.5,4.5,0,8.2,0.5,10.6C238.2,283.5,240.9,282.1,243.5,280.7z"/>
<path id="XMLID_13_" class="st1" d="M368.3,282.1c-2.9-1.5-5.8-3-8.7-4.6c0.9-2,2.4-4.7,5.1-7.4c2.4-2.4,5.6-5.7,8.2-4.9
	c2.9,0.9,3.5,6.5,4,10.5c0.5,4.5,0,8.2-0.5,10.6C373.7,284.9,371,283.5,368.3,282.1z"/>
<circle id="XMLID_14_" class="st1" cx="285.6" cy="350.4" r="6.4"/>
<circle id="XMLID_15_" class="st1" cx="325.3" cy="350.4" r="6.4"/>
<path id="XMLID_16_" class="st1" d="M320.8,372.2c1.7,4.1-6.3,14.7-15.7,14.3c-9.1-0.4-16.1-10.9-14.3-14.8
	c1.2-2.4,5.8-2.4,13.6-2.5C313,369.2,319.6,369.2,320.8,372.2z"/>
<path id="XMLID_17_" class="st1" d="M258.6,412.5"/>
<path id="XMLID_19_" class="st2" d="M280,386.5c-1.9,6.1-0.2,12.6,4.4,16.4c5.2,4.4,12.8,4.1,17,1.2c0.6-0.4,1.8-1.3,2.8-2.9
	c1.1-1.8,1.2-3.4,1.2-9.5c0-1.8,0-3.9-0.1-6.2"/>
<path id="XMLID_20_" class="st2" d="M330.9,386.5c1.9,6.1,0.2,12.6-4.4,16.4c-5.2,4.4-12.8,4.1-17,1.2c-0.6-0.4-1.8-1.3-2.8-2.9
	c-1.1-1.8-1.2-3.4-1.2-9.5c0-1.8,0-3.9,0.1-6.2"/>
<path id="XMLID_21_" class="st2" d="M326,377.4c0,0,5.6-10.1,17.7-10.4"/>
<path id="XMLID_22_" class="st2" d="M328,380.5c0,0,9.7-6.3,20.5-1"/>
<path id="XMLID_24_" class="st2" d="M286.4,377.4c0,0-5.6-10.1-17.7-10.4"/>
<path id="XMLID_23_" class="st2" d="M284.4,380.5c0,0-9.7-6.3-20.5-1"/>
<path id="XMLID_28_" class="st0" d="M313.5,114.2c-0.7,0.4-1,1-1.1,1.2c-0.6,1.2-4.4,8.3-9.5,18.1c1.6,3.4,3.5,8.2,7.7,12
	c4.9,4.5,17.8,13.6,17.8,13.6l-2.2,4.1l23.6,12.5l2.1-4c6.3,2.9,15.6,6.1,27,6.1c3,0,5.8-0.2,8.3-0.6c4.7-8.8,8.1-15.2,9.3-17.1
	c0.2-0.4,0.6-1.2,0.7-2.3c0.4-2.7-1.1-5-3-7.6c-1.8-2.5-4.3-5.6-7.5-9.1c-6.2-5.9-14.1-12-23.8-17.2c-0.1,0-0.3-0.2-0.6-0.3
	c-9.2-4.9-18.8-10-28.7-10.7C324.3,112.4,314.1,113.8,313.5,114.2z"/>
<path id="XMLID_32_" class="st1" d="M338.6,142l2.2-4.1l22.9,12.2l-2.2,4.1c2.3,1.3,6.3,3.2,11.5,3.5c1.5,0.1,9.5,0.6,10.8-2.7
	c0.6-1.6-0.4-3.8-3.7-7.4c-5.7-6.3-11.3-9.2-22.5-15.1c-10.7-5.6-14.8-7.8-21.6-9.1c-3.5-0.7-10.4-2-12.1,0.9c-1,1.6,0.1,4,1,5.7
	C328.1,136.7,334.5,140.2,338.6,142z"/>
<path id="XMLID_29_" class="st1" d="M342.6,144.3c-2.9,5.5-5.8,11-8.7,16.5c4.8,2.6,9.7,5.2,14.5,7.9c1.1-2,2.2-3.9,3.3-5.9
	c-2.2-1.2-4.4-2.4-6.5-3.6c0.8-1.5,1.7-3,2.5-4.5c2.1,1.1,4.2,2.2,6.4,3.2c1-2,2.1-4,3.1-5.9C352.2,149.4,347.4,146.8,342.6,144.3z"
	/>
<ellipse id="XMLID_33_" transform="matrix(0.9726 0.2325 -0.2325 0.9726 48.6768 -80.4184)" class="st1" cx="365.4" cy="166.2" rx="3.6" ry="4"/>
<ellipse id="XMLID_35_" transform="matrix(0.9726 0.2325 -0.2325 0.9726 49.4544 -83.1807)" class="st1" cx="377.5" cy="168.2" rx="3.2" ry="3.5"/>
<ellipse id="XMLID_36_" transform="matrix(0.9995 3.304989e-002 -3.304989e-002 0.9995 5.7304 -12.6955)" class="st1" cx="386.9" cy="167" rx="2.9" ry="3.2"/>
<path id="XMLID_30_" class="st0" d="M333.2,179.7L333.2,179.7c-2.2-1.2-3.1-4-1.9-6.2l5.5-10.3c1.2-2.2,4-3.1,6.2-1.9l0,0
	c2.2,1.2,3.1,4,1.9,6.2l-5.5,10.3C338.2,180.1,335.4,180.9,333.2,179.7z"/>
<path id="XMLID_31_" class="st0" d="M321.7,200c9.1-2,15.9-4.4,20.3-6.2c2.1-0.9,4.6-2,6.1-4.6c1.7-2.9,1.9-7.1-0.1-10.2
	c-0.8-1.2-1.8-2.3-3.2-3.1c-0.8-0.5-2.3-1.3-4.3-1.5c-0.9-0.1-3.1-0.3-5.1,0.9c-0.4,0.3-0.8,0.5-1,0.7c0-1-0.2-2.8-1.3-4.7
	c-0.4-0.7-1.6-2.5-3.5-3.7c-3.9-2.6-10.9-0.8-13.6,4c-1.7,2.9-1.2,6.1-0.9,7.3C317.3,185.9,319.5,193,321.7,200z"/>
<path id="XMLID_26_" class="st0" d="M468.2,80.7c-0.8,22.8-1.6,45.6-2.4,68.4c1.5,0.7,3.8,1.7,6.6,2.7c3.7,1.4,20.5,7.4,45.8,6.8
	c39.5-1,83-17.8,106.5-33.8c18.2-12.4,25.5-24.9,27.5-28.5c1.7-3,2.8-5.6,3.5-7.2c-13.5-18.1-27-36.2-40.5-54.3
	c-12.8-2.6-23.4-2.9-30.5-2.8c-23.2,0.4-44.5,9.3-87.1,27.2c-4,1.7-11.7,5-19.8,11.8C473.2,74.9,470,78.5,468.2,80.7z"/>
<path id="XMLID_27_" class="st1" d="M491.3,65.4c-1.3,0.7-17.9,9.7-19.6,17.6c-0.3,1.1-0.6,3,0.3,4.9c1.6,3.6,6,4.5,6,4.5
	s4.1,2,15.7,1.7c16.2-0.4,24.3-1.8,27.6-2.4c4.4-0.7,18.7-3.1,33.5-7.7c7.7-2.4,19.2-5.9,32.3-13.3c5.6-3.1,33.4-18.7,30.7-27.9
	c-0.5-1.6-3.1-7.4-28.9-7.3c0.1,0.8,0.2,1.6,0.3,2.3c5.6,1.5,12.5,4,13.2,8.4c1.4,9.2-25.1,22-51.6,30.1c-25.1,7.7-54.2,12.7-64,8.2
	c-0.6-0.3-2.2-1.1-2.8-2.6c-2-4.9,6.6-12.5,8.8-14.4C492.2,66.9,491.8,66.1,491.3,65.4z"/>
<path id="XMLID_4_" class="st0" d="M515.4,45.4c0,0,0.8-5.8,5.3-7.4c4.6-1.6,6.7-1.5,6.7-1.5s2.4-4.8,6.2-5.7c3.8-1,7.5,1.3,7.5,1.3
	s5.4-2.5,8.7-1.8c3.3,0.7,6.6,2.5,6.6,2.5s4.7-3.4,8.2-3.8c3.5-0.4,9.7,4.6,9.7,4.6s3.9-2.8,7.1-2.2c3.2,0.6,7.6,6.5,7.6,6.5
	s10,0.6,12.7,7s-15.6,22.1-52.5,32.6s-62.9,12.3-66.1,4.3c-1.2-4,8.9-13.7,8.9-13.7s-1.3-4.8,2.3-10.1c1.4-2.8,7.8-3.2,7.8-3.2
	s-0.2-5.5,5.1-8.6C512.5,43.1,515.4,45.4,515.4,45.4z"/>
<g id="XMLID_39_">
	<g id="XMLID_105_">
		<path id="XMLID_189_" class="st1" d="M517.6,127.9c0.8-2.4,1.6-4.7,2.3-6.9c0.7-2.2,1.3-4.3,1.8-6.2c0.5-1.9,0.8-3.6,1.1-5
			c0.2-1.5,0.2-2.7,0.3-3.4c0.1-0.7,0.5-1.5,1-2c0.5-0.5,1.1-0.8,1.8-0.9c0.4,0,0.8,0,1.1,0.2c0.3,0.2,0.6,0.4,0.8,0.7
			c0.2,0.3,0.4,0.6,0.5,1c0.1,0.4,0.2,0.8,0.3,1.2c0,0.3,0,0.6,0,0.8c0,0.2,0,0.5-0.1,0.7c-0.2,1.6-0.6,3.3-1,5
			c-0.4,1.7-0.9,3.5-1.4,5.3c-0.5,1.8-1,3.6-1.5,5.4s-1,3.5-1.4,5.2c-0.2,0.7-0.3,1.1-0.4,1.8c-0.2,0.9-0.4,1.8-0.6,2.6
			c-0.2,0.8-0.2,1.5-0.2,2c0,0.3,0.1,0.5,0.2,0.6c0.1,0.2,0.4,0.2,0.8,0.2c0.9-0.1,1.9-0.2,3.1-0.6c1.2-0.3,2.3-0.7,3.6-1.2
			c1.2-0.5,2.4-1,3.6-1.5c1.2-0.5,2.2-1.1,3.2-1.6c0.5-0.3,0.9-0.5,1.3-0.7c0.4-0.2,0.8-0.4,1.3-0.7c0.5-0.3,1.2-0.7,2.1-1.1
			c0.9-0.5,2.1-1.2,3.6-2.1c0.3-0.1,0.5-0.3,0.7-0.4c0.2-0.1,0.4-0.2,0.6-0.2c0.3-0.1,0.6-0.1,0.9,0c0.3,0.1,0.5,0.2,0.6,0.3
			c0.2,0.1,0.3,0.3,0.4,0.5c0.1,0.2,0.2,0.4,0.2,0.6c0.1,0.4,0.1,0.7,0.1,1c0,0.3,0,0.5-0.1,0.7c-0.2,0.4-0.4,0.7-0.8,1.1
			c-0.3,0.3-0.7,0.7-1.1,0.9c-0.4,0.3-0.8,0.5-1.2,0.7c-0.4,0.2-0.7,0.4-1,0.5c-0.3,0.2-0.7,0.4-1.3,0.6c-0.5,0.3-1.1,0.6-1.7,0.9
			c-0.6,0.3-1.3,0.6-1.9,0.9c-0.7,0.3-1.3,0.6-1.9,0.9c-0.6,0.3-1.1,0.5-1.6,0.7c-0.5,0.2-0.8,0.4-1,0.4c-0.9,0.4-1.9,0.8-3,1.3
			c-1.1,0.5-2.2,0.9-3.3,1.3c-1.1,0.4-2.2,0.8-3.2,1c-1,0.3-1.9,0.4-2.5,0.5c-0.8,0-1.5,0-2-0.1c-0.5-0.1-0.9-0.2-1.3-0.4
			c-0.4-0.2-0.8-0.4-1.2-0.6c-0.4-0.2-0.9-0.5-1.6-0.8c-0.6-0.3-1-0.6-1.2-1.1c-0.2-0.5-0.4-1-0.4-1.5c0-0.3,0-0.6,0.1-1
			c0-0.4,0.1-0.7,0.2-1.1c0.1-0.4,0.2-0.8,0.3-1.2c0.1-0.4,0.2-0.7,0.3-1C516.7,130.6,517,129.7,517.6,127.9z"/>
		<path id="XMLID_186_" class="st1" d="M551.4,126.8c-0.2-0.7-0.1-1.4,0.3-2c0.3-0.6,1.3-1.1,1.6-1.4c0.2-0.2,0.3-1,0.6-1.7
			c0.3-0.7,0.7-1.6,1.1-2.5c0.5-0.9,1-1.8,1.6-2.8c0.6-1,1.3-1.9,2.1-2.8c0.8-0.9,1.7-1.7,2.7-2.4c1-0.7,2.1-1.3,3.3-1.7
			c1-0.4,2-0.6,2.9-0.6c0.9-0.1,1.6,0,2.3,0.2s1.2,0.5,1.7,1c0.5,0.5,0.8,1,1.1,1.6c0.2,0.5,0.3,1.1,0.4,1.7c0.1,1-0.1,2-0.5,2.9
			c-0.5,1-1.1,1.9-1.9,2.7c-0.8,0.9-1.7,1.7-2.8,2.4c-1.1,0.7-2.2,1.4-3.3,2c-1.1,0.6-2.2,1.1-3.3,1.6c-1.1,0.5-2.5,0.8-2.8,1.1
			c-0.1,0.1-0.2,0.8-0.2,1.3c0,0.5,0,1,0.2,1.4c0.3,1,0.9,1.6,2,1.8c1.1,0.3,2.5,0.2,4.2-0.4c1-0.3,1.9-0.7,2.7-1.1
			c0.8-0.5,1.6-1,2.3-1.5c0.7-0.5,1.3-1.1,1.9-1.6c0.6-0.6,1.1-1.1,1.5-1.6c0.6-0.7,1.1-1.2,1.7-1.7c0.5-0.5,1-0.9,1.5-1.1
			c0.5-0.2,0.8-0.2,1.1-0.1c0.2,0.1,0.4,0.3,0.5,0.6c0.1,0.1,0.1,0.3,0.1,0.4c0,0.1,0.1,0.2,0.1,0.3c0.1,0.5,0,1-0.1,1.5
			c-0.1,0.5-0.4,1-0.7,1.5c-1.6,2.1-3.4,3.9-5.5,5.2c-2.1,1.4-4.4,2.4-7,3.2c-0.5,0.2-1.1,0.3-1.8,0.5c-0.7,0.1-1.4,0.2-2.2,0.3
			c-0.8,0.1-1.6,0-2.4-0.1c-0.8-0.1-1.5-0.3-2.2-0.6c-0.7-0.3-1.3-0.8-1.8-1.4c-0.5-0.6-0.9-1.4-1.1-2.4c-0.2-0.8-0.3-1.7-0.2-2.7
			c-0.3,0-0.5,0-0.8-0.2C551.7,127.5,551.5,127.2,551.4,126.8z M567.6,114.6c0-0.1,0-0.2,0-0.2c0-0.1,0-0.1-0.1-0.2
			c-0.2-0.4-0.5-0.7-0.9-0.8c-0.4-0.1-0.9,0-1.5,0.1c-0.8,0.3-1.6,0.7-2.2,1.4c-0.7,0.6-1.3,1.3-1.8,2.1c-0.5,0.8-1,1.6-1.3,2.4
			c-0.4,0.8-0.6,1.5-0.8,2.2c1.4-0.5,2.6-1.1,3.7-1.6c1.1-0.6,2-1.2,2.7-1.8c0.7-0.6,1.3-1.2,1.7-1.8
			C567.5,115.7,567.6,115.1,567.6,114.6z"/>
		<path id="XMLID_183_" class="st1" d="M581.9,116.7c-0.1-1.1-0.2-2.3-0.1-3.6c0.1-1.3,0.4-2.8,0.8-4.3c0.4-1.5,1-3.1,1.7-4.8
			c0.7-1.7,1.7-3.3,2.8-5.1c0.2-0.3,0.5-0.6,0.9-1.1c0.4-0.4,0.9-0.8,1.4-1.2c0.3-1,1-1.8,2.1-2.4c1.3-0.8,2.5-1.1,3.7-1.1
			c1.2,0,2.4,0.4,3.7,1c0.4,0.2,0.8,0.4,1.1,0.6c0.4,0.2,0.7,0.4,1,0.7s0.7,0.6,1,0.9c0.3,0.3,0.6,0.8,1,1.3
			c0.7,1.1,1.3,2.4,1.6,3.9c0.3,1.5,0.5,3,0.4,4.7c-0.1,1.7-0.4,3.4-1,5.2c-0.6,1.8-1.4,3.5-2.4,5.3c-0.7,1.2-1.6,2.3-2.7,3.3
			c-1.1,1-2.4,1.9-4,2.7c-1.5,0.8-2.9,1.3-4.2,1.5c-1.3,0.2-2.4,0.2-3.4-0.1c-1-0.3-1.9-0.7-2.6-1.4c-0.7-0.7-1.3-1.5-1.8-2.6
			C582.3,119.1,582,118,581.9,116.7z M586.7,114.8c0.1,0.4,0.1,0.8,0.2,1.1c0.1,0.3,0.2,0.7,0.4,1c0.2,0.5,0.6,1,0.9,1.3
			c0.4,0.4,0.8,0.6,1.3,0.8c0.5,0.1,1.1,0.2,1.7,0.1c0.6-0.1,1.4-0.3,2.1-0.7c1.5-0.7,2.7-1.8,3.6-3c0.9-1.3,1.6-2.6,2-4
			c0.4-1.4,0.7-2.8,0.7-4.1c0-1.4-0.1-2.5-0.3-3.5c-0.2-0.6-0.3-1.2-0.5-1.7c-0.2-0.5-0.4-1-0.6-1.4c-0.2-0.4-0.5-0.7-0.9-0.9
			c-0.4-0.2-0.8-0.5-1.3-0.7c-0.3-0.2-0.6-0.3-0.9-0.5c-0.3-0.2-0.6-0.4-0.9-0.6c0,0.3,0,0.6-0.1,0.8c-0.1,0.2-0.2,0.5-0.4,0.8
			c-0.2,0.3-0.6,0.7-1.1,1.1c-0.5,0.4-1.2,0.9-1.9,1.4c-0.5,0.4-0.9,1.1-1.3,1.7c-0.4,0.7-0.8,1.4-1.1,2.2c-0.3,0.8-0.6,1.6-0.9,2.4
			c-0.2,0.8-0.4,1.6-0.6,2.4c-0.1,0.8-0.2,1.5-0.3,2.3C586.6,113.7,586.6,114.3,586.7,114.8z"/>
	</g>
</g>
<path id="XMLID_43_" class="st3" d="M534.6,269.3l-54.5,87.2c-0.6,0.9-1.8,1.2-2.8,0.6l-0.6-0.3c-0.9-0.6-1.2-1.8-0.6-2.8l54.5-87.2
	c0.6-0.9,1.8-1.2,2.8-0.6l0.6,0.3C534.9,267.1,535.2,268.3,534.6,269.3z"/>
<path id="XMLID_44_" class="st3" d="M547.4,265.7l92.3,45.4c1,0.5,2.2,0.1,2.7-0.9l0.3-0.6c0.5-1,0.1-2.2-0.9-2.7l-92.3-45.4
	c-1-0.5-2.2-0.1-2.7,0.9l-0.3,0.6C545.9,264,546.4,265.2,547.4,265.7z"/>
<path id="XMLID_48_" class="st3" d="M547.8,262.2l-15.5,4.4c-0.3,0.1-0.6-0.1-0.7-0.4l-0.1-0.2c-0.1-0.3,0.1-0.6,0.4-0.7l15.5-4.4
	c0.3-0.1,0.6,0.1,0.7,0.4l0.1,0.2C548.3,261.8,548.1,262.1,547.8,262.2z"/>
<path id="XMLID_50_" class="st3" d="M548.3,264l-15.5,4.4c-0.3,0.1-0.6-0.1-0.7-0.4l-0.1-0.2c-0.1-0.3,0.1-0.6,0.4-0.7l15.5-4.4
	c0.3-0.1,0.6,0.1,0.7,0.4l0.1,0.2C548.8,263.6,548.6,263.9,548.3,264z"/>
<path id="XMLID_51_" class="st3" d="M548.5,264.6L533,269c-0.3,0.1-0.6-0.1-0.7-0.4l-0.1-0.2c-0.1-0.3,0.1-0.6,0.4-0.7l15.5-4.4
	c0.3-0.1,0.6,0.1,0.7,0.4l0.1,0.2C549,264.2,548.8,264.5,548.5,264.6z"/>
<path id="XMLID_52_" class="st3" d="M548.7,265.3l-15.5,4.4c-0.3,0.1-0.6-0.1-0.7-0.4l-0.1-0.2c-0.1-0.3,0.1-0.6,0.4-0.7l15.5-4.4
	c0.3-0.1,0.6,0.1,0.7,0.4l0.1,0.2C549.2,264.9,549,265.2,548.7,265.3z"/>
<path id="XMLID_49_" class="st0" d="M497.5,357.3c0,0,42.9-70.6,45.7-72.8c2.8-2.2,3.3-2,5.5-1.6c2.1,0.4,77.2,37.7,77.2,37.7
	l14.9,75c0,0,0.9,3-3.4,6s-31.4,8.9-31.4,8.9s5.3-12.1,1.3-25.4c-1.1-3.7-5.5-33.6-26.2-38.7c-12.7-3.1-23.7,4.9-24.2,5.3
	c-15.1,11.6-14.2,35.5-8.3,50.2c3.9,9.8,10.2,16.1,14,19.4c-9.7,2.9-19.5,5.8-29.2,8.7c-0.4,0.2-3.2,1.4-6.2,0
	c-2.2-1-3.1-2.9-3.4-3.4C515.1,403.8,506.3,380.6,497.5,357.3z"/>
</svg>
